<?xml version="1.0" encoding="UTF-8"?>
<svg xmlns="http://www.w3.org/2000/svg" width="77" height="49" viewBox="0 0 77 49" fill="none">
  <path d="M76.2887 0H0V48.5864H76.2887V0Z" fill="white"></path>
  <path d="M74.83 1.3313H1.47253V47.1822H74.83V1.3313Z" fill="#174492"></path>
  <path d="M36.5798 11.3238L38.1309 10.2641L39.6819 11.3238L39.0904 9.61098L40.6545 8.55127H38.7223L38.1309 6.81384L37.5394 8.55127H35.6072L37.1713 9.61098L36.5798 11.3238Z" fill="#FFEA00"></path>
  <path d="M28.576 13.3331L30.127 12.2733L31.6649 13.3331L31.0734 11.6326L32.6507 10.5729H30.7185L30.1139 8.83545L29.5224 10.5729H27.5902L29.1544 11.6326L28.576 13.3331Z" fill="#FFEA00"></path>
  <path d="M24.2642 14.3429L23.6596 16.0803L21.7274 16.068L23.3047 17.1277L22.7132 18.8405L24.2642 17.7931L25.8021 18.8405L25.2106 17.1277L26.7879 16.068H24.8557L24.2642 14.3429Z" fill="#FFEA00"></path>
  <path d="M22.1088 25.2852L23.6599 26.3449L23.0684 24.6321L24.6457 23.5724H22.7003L22.1088 21.835L21.5174 23.5847L19.572 23.5724L21.1493 24.6321L20.5578 26.3449L22.1088 25.2852Z" fill="#FFEA00"></path>
  <path d="M24.8557 31.1014L24.2642 29.364L23.6596 31.1014H21.7274L23.3047 32.1612L22.7132 33.8739L24.2642 32.8142L25.8021 33.8739L25.2238 32.1612L26.7879 31.1014H24.8557Z" fill="#FFEA00"></path>
  <path d="M30.7308 36.5966L30.1262 34.8715L29.5347 36.6089L27.6025 36.5966L29.1667 37.6686L28.5884 39.3691L30.1262 38.3094L31.6772 39.3691L31.0989 37.6686L32.663 36.5966H30.7308Z" fill="#FFEA00"></path>
  <path d="M38.7223 38.5929L38.1309 36.8555L37.5394 38.5929H35.6072L37.1713 39.6526L36.5798 41.3654L38.1309 40.3057L39.6819 41.3654L39.0904 39.6526L40.6677 38.5929H38.7223Z" fill="#FFEA00"></path>
  <path d="M46.7279 36.5966L46.1364 34.8715L45.5449 36.6089L43.5996 36.5966L45.1769 37.6686L44.5854 39.3691L46.1364 38.3094L47.6874 39.3691L47.096 37.6686L48.6601 36.5966H46.7279Z" fill="#FFEA00"></path>
  <path d="M52.6027 31.1014L52.0112 29.364L51.4066 31.1014H49.4744L51.0517 32.1612L50.4602 33.8739L52.0112 32.8142L53.5491 33.8739L52.9707 32.1612L54.5349 31.1014H52.6027Z" fill="#FFEA00"></path>
  <path d="M56.6645 23.5479H54.7323L54.1277 21.8228L53.5362 23.5602L51.604 23.5479L53.1682 24.6199L52.5898 26.3204L54.1277 25.2606L55.6787 26.3204L55.0872 24.6199L56.6645 23.5479Z" fill="#FFEA00"></path>
  <path d="M50.4602 18.8278L52.0112 17.7681L53.5491 18.8278L52.9707 17.115L54.5349 16.0553H52.6027L52.0112 14.3179L51.4066 16.0553H49.4744L51.0517 17.115L50.4602 18.8278Z" fill="#FFEA00"></path>
  <path d="M46.1622 8.83545L45.5576 10.5729H43.6254L45.1895 11.6326L44.6112 13.3454L46.1622 12.2733L47.7001 13.3454L47.1086 11.6326L48.6859 10.5729H46.7537L46.1622 8.83545Z" fill="#FFEA00"></path>
</svg>
